<svg width="42" height="27" viewBox="0 0 42 27" fill="none" xmlns="http://www.w3.org/2000/svg">
<mask id="mask0_38_380" style="mask-type:luminance" maskUnits="userSpaceOnUse" x="0" y="0" width="42" height="27">
<path d="M0 0H41.8385V26.849H0V0Z" fill="white"/>
</mask>
<g mask="url(#mask0_38_380)">
<path fill-rule="evenodd" clip-rule="evenodd" d="M15.3021 16.0782V15.2396L13.8229 15.0469V16.375L15.3021 16.0782ZM17.3177 15.4375V13.8646L19.1354 13.9115V14.5052C18.4479 14.6042 17.8073 14.75 17.3177 15.4375ZM19.875 13.9115V14.4532L21.0521 14.4063V13.9636L19.875 13.9115ZM24.5937 16.5209C24.5937 16.224 24.6458 15.9792 24.6927 15.6823L20.1667 16.6667C20.0208 16.9636 19.9687 17.3073 19.9219 17.6979L24.5937 16.5209ZM12.7917 10.7657C10.9219 10.0782 11.2187 6.92711 12.7448 6.43753C12.7448 6.43753 12.7448 6.43753 12.7917 6.43753C12.7917 6.4844 12.4479 6.88023 12.349 7.07815C11.7083 8.35419 12.0052 9.68232 12.7917 10.7657ZM10.724 8.70315C10.776 10.224 10.8698 10.3229 11.7083 11.4532C11.2656 11.6979 9.54687 10.3698 10.724 8.70315ZM9.05208 10.2709C9.15104 10.4688 9.39583 11.1094 9.59375 11.2604L9.54687 11.2084C9.83854 11.6042 10.0365 11.6511 10.3333 11.9479C9.39583 12.2448 8.5625 11.3073 9.05208 10.2709ZM24.2031 4.56774C25.1875 3.58336 27.3021 4.36982 27.0052 5.89586C26.2187 4.61982 25.0365 4.52086 24.2031 4.56774ZM1.28125 24.1927L5.16666 23.75C5.16666 23.75 5.26562 24.3907 5.11979 24.3907C5.02083 24.3907 1.08333 24.3386 0.984372 24.2917C0.890623 24.2448 1.28125 24.1927 1.28125 24.1927ZM0.890622 18.2448C0.890622 18.2448 10.2812 15.1927 10.5781 15.1927C10.8698 15.2396 11.1198 15.4896 10.9219 15.5834C10.776 15.6354 0.05208 18.7344 0.00520531 18.6354C-0.0468787 18.5365 0.890622 18.2448 0.890622 18.2448ZM7.625 11.9479C7.77604 11.9948 8.21875 12.3907 8.36458 12.3907C8.70833 12.5365 8.85416 12.4844 9.20312 12.5834C8.66146 13.125 7.67708 12.8334 7.625 11.9479ZM22.6771 6.23961C23.3177 5.01044 25.5781 5.16149 25.7292 6.68232C24.5937 5.69794 23.4167 5.89586 22.6771 6.23961ZM19.0885 5.20836C19.8281 4.02607 22.0365 4.36982 22.0885 5.94794C21.0521 4.86461 19.875 4.96357 19.0885 5.20836ZM9.9375 23.0625C10.2344 23.0625 10.4792 23.6511 10.4792 24.2917C10.4792 24.9792 10.2344 25.5209 9.9375 25.5209C9.69271 25.5209 9.49479 25.125 9.44791 24.6354C9.54687 24.9323 9.6927 25.125 9.83854 25.125C10.0885 25.125 10.2812 24.6823 10.2812 24.1459C10.2812 23.5521 10.0885 23.1094 9.83854 23.1094C9.83854 23.1094 9.89062 23.0625 9.9375 23.0625ZM15.25 22.8646C15.4479 22.8646 15.5937 22.9636 15.6927 23.2084C15.6458 23.1094 15.5469 23.0625 15.4479 23.0625C15.1042 23.0625 14.8594 23.6042 14.8594 24.2448C14.8594 24.8334 15.0521 25.3229 15.349 25.4219C15.3021 25.4219 15.3021 25.4219 15.25 25.4219C14.9062 25.4219 14.6615 24.8334 14.6615 24.1459C14.6615 23.4063 14.9062 22.8646 15.25 22.8646ZM13.2344 23.0625C13.3802 23.0625 13.5312 23.2084 13.625 23.4063C13.5781 23.3073 13.4792 23.2604 13.3802 23.2604C13.0365 23.2604 12.7917 23.75 12.7917 24.3907C12.7917 24.9323 12.9844 25.375 13.2812 25.474C13.2344 25.474 13.2344 25.474 13.2344 25.474C12.8437 25.474 12.5937 24.9323 12.5937 24.2448C12.5937 23.6042 12.8437 23.0625 13.2344 23.0625ZM18.151 24.6823C18.3021 24.6823 18.4479 24.3907 18.4479 24.0469C18.4479 23.75 18.3021 23.4532 18.151 23.4532C17.9531 23.4532 17.8073 23.75 17.8073 24.0469C17.8073 24.3907 17.9531 24.6823 18.151 24.6823ZM18.6927 23.4063C18.7917 23.4063 18.8906 23.1615 18.8906 22.8646C18.8906 22.5677 18.7917 22.3229 18.6927 22.3229C18.5469 22.3229 18.4479 22.5677 18.4479 22.8646C18.4479 23.1615 18.5469 23.4063 18.6927 23.4063ZM18.5937 20.2084C18.6927 20.2084 18.7917 20.2084 18.8906 20.2604C18.1042 20.3594 17.6094 21.1927 17.4635 22.2761C17.6615 21.5834 17.9531 21.0938 18.349 21.0469C17.9062 21.3386 17.5625 22.1771 17.5625 23.2084C17.5625 24.0469 17.7604 24.7813 18.0521 25.1771C18.25 25.375 18.4479 25.5209 18.7448 25.5729C18.7917 25.5729 18.8906 25.5729 18.9375 25.5729C18.8385 25.6198 18.6927 25.6667 18.5937 25.6667C17.5625 25.6667 17.0208 24.4375 17.0208 22.9115C17.0208 21.4375 17.5625 20.2084 18.5937 20.2084ZM18.7448 23.6511H21.25C21.25 23.75 21.25 23.9011 21.25 23.9948C21.25 24.1459 21.25 24.2917 21.3021 24.4375H18.7448C18.7917 24.3386 18.7917 24.1927 18.7917 24.0469C18.7917 23.9011 18.7917 23.75 18.7448 23.6511ZM22.3802 23.3542L24.9375 20.8959C24.9896 21.1927 25.0885 21.4375 25.1875 21.6354L22.5312 24.0469C22.5312 23.8021 22.4792 23.5052 22.3802 23.3542ZM22.3802 21.9792C22.4792 21.9792 22.6302 22.2761 22.6302 22.6198L22.1875 23.0625C22.1354 22.9115 22.0885 22.7657 22.0885 22.6198C22.0885 22.2761 22.2344 21.9792 22.3802 21.9792ZM21.8906 24.6823C22.0365 24.6823 22.2344 24.3907 22.2344 24.0469C22.2344 23.75 22.0365 23.4532 21.8906 23.4532C21.6927 23.4532 21.5469 23.75 21.5469 24.0469C21.5469 24.3907 21.6927 24.6823 21.8906 24.6823ZM21.0521 21.7344C21.25 21.0469 21.5469 20.6042 21.8906 20.5521C21.4479 20.849 21.151 21.7344 21.151 22.8177C21.151 23.0104 21.151 23.2084 21.151 23.3542H20.6094C20.6094 23.1094 20.5625 22.8646 20.5625 22.6198C20.5625 20.9479 21.151 19.6198 22.1354 19.6198C22.2344 19.6198 22.3802 19.6198 22.4792 19.6667C21.6927 19.8125 21.2031 20.6042 21.0521 21.7344ZM21.5469 24.9792C21.7917 25.3229 22.0885 25.5209 22.5312 25.5209C22.3802 25.5729 22.2865 25.6198 22.1354 25.6198C21.6927 25.6198 21.349 25.375 21.1042 24.9792H21.5469ZM29.1667 22.5209C29.3646 22.5209 29.5625 22.7188 29.6615 22.9636C29.3177 22.6667 29.0729 22.9115 28.9219 23.3073C28.776 23.849 28.776 25.3229 29.2708 25.5209C29.2187 25.5209 29.2187 25.5209 29.1667 25.5209C28.8229 25.5209 28.4792 24.8334 28.4792 24.0469C28.4792 23.2084 28.8229 22.5209 29.1667 22.5209ZM25.974 19.9636C25.1875 20.8959 25.875 22.0313 26.2187 22.0313L29.4167 21.9323C29.3646 21.8802 29.3177 21.7813 29.2187 21.7344C28.5781 21.6823 26.6094 21.6823 26.4635 21.5834C26.3646 21.4896 28.2344 21.1459 28.974 21.0469C28.875 20.4532 28.9219 19.8646 29.2187 19.6198L25.974 19.9636ZM36.151 21.9792L37.875 23.4532L36.8906 21.9792H36.151ZM33.6927 15.1459C33.7448 15.1459 33.7917 15.1459 33.8437 15.1927C33.6927 15.2917 33.5937 15.5365 33.5937 15.7813C33.5937 16.0782 33.6927 16.3229 33.8906 16.4219C33.8437 16.474 33.7917 16.474 33.6927 16.474C33.5 16.474 33.3021 16.1771 33.3021 15.8334C33.3021 15.4375 33.5 15.1459 33.6927 15.1459ZM33.349 13.3229C33.8437 13.3229 34.2344 13.7657 34.4792 14.4063C33.9375 13.5677 33.25 13.7188 32.9062 14.2084C32.6094 14.6511 32.5625 15.2917 32.5625 15.8334C32.5625 16.8646 33.0573 17.75 33.6927 17.75C33.7917 17.75 33.8906 17.6979 33.9896 17.6511C33.8437 17.849 33.5937 17.9479 33.349 17.9479C32.6615 17.9479 32.0729 16.9167 32.0729 15.6354C32.0729 14.4063 32.6615 13.3229 33.349 13.3229ZM30.0573 21.0469H37.2344L34.875 21.3907H34.6302L37.3333 23.9948H37.2344L34.5781 22.2761L35.7083 23.9948H35.6146L33.5469 21.8802L34.5312 23.9948H34.4323L32.8594 21.8802L33.3021 23.9948H33.2031L32.1719 21.6823L32.2656 23.9948H32.1719L31.4323 21.3907L30.0573 21.0469ZM26.0208 22.8646C26.2187 22.8646 26.3646 22.9636 26.5156 23.2084C26.1719 22.9636 25.875 23.2084 25.776 23.5521C25.5781 23.9948 25.5781 25.3229 26.1198 25.5209C26.0729 25.5209 26.0729 25.5209 26.0208 25.5209C25.6302 25.5209 25.3333 24.9323 25.3333 24.1927C25.3333 23.4532 25.6302 22.8646 26.0208 22.8646ZM6.49479 23.3542C6.73958 23.3542 6.9375 23.75 6.98958 24.2448L9.74479 24.0469V24.4375L6.98958 24.4896C6.98958 25.0782 6.73958 25.5729 6.49479 25.5729C6.25 25.5729 6.05208 25.224 6.00521 24.7813C6.10416 25.0313 6.20312 25.224 6.39583 25.224C6.59375 25.224 6.73958 24.9323 6.79166 24.5365H6.25V24.2917L6.83854 24.2448C6.79166 23.75 6.59375 23.4063 6.39583 23.4063H6.34896C6.39583 23.4063 6.44791 23.3542 6.49479 23.3542ZM32.6615 25.8177H33.9375C33.7448 25.6198 33.5937 25.3229 33.5 24.9792H33.0573C32.9583 25.3229 32.8594 25.6198 32.6615 25.8177ZM30.2031 25.8177H31.3854C31.1875 25.6198 31.0885 25.3229 30.9896 24.9323L30.9375 24.7813H30.6927C30.5937 25.224 30.4479 25.6198 30.2031 25.8177ZM27.1042 25.8177H28.5781C28.3333 25.6198 28.1875 25.224 28.0885 24.7813H27.5937C27.5469 25.224 27.349 25.6198 27.1042 25.8177ZM23.2656 25.8177H24.349C24.151 25.6198 24.0052 25.375 23.9062 25.0782C23.7083 25.375 23.5104 25.6198 23.2656 25.8177ZM19.776 25.8177H21.151C20.8594 25.5729 20.6094 25.2761 20.4167 24.8802C20.2656 25.2761 20.0208 25.5729 19.776 25.8177ZM16.875 25.8177H17.4635C17.3646 25.7188 17.2187 25.5729 17.1198 25.4219C17.0729 25.5729 16.974 25.7188 16.875 25.8177ZM14.0208 25.8177H14.7604C14.5625 25.6667 14.4635 25.4219 14.3646 25.125C14.3177 25.4219 14.1719 25.6667 14.0208 25.8177ZM11.0208 25.8177H12.6927C12.3958 25.5729 12.25 25.0782 12.25 24.4896H12.2031L11.4167 24.4375C11.3646 25.0313 11.2656 25.5209 11.0208 25.8177ZM7.57812 25.8177H9.54687C9.34895 25.5729 9.20312 25.224 9.15104 24.7813H7.92187C7.875 25.224 7.77604 25.5729 7.57812 25.8177ZM1.67708 25.8177H6.05208C5.80729 25.5729 5.70833 25.125 5.66146 24.6354H5.46354V23.2084L1.82291 23.6042L1.53125 23.4532L4.82291 22.9636V19.5677L1.18229 20.2604L0.791664 20.1615L10.776 17.7969V18.4375L10.2812 18.5365V20.4532L9.98958 20.5052L9.69271 18.6354L9.05208 18.7813V20.75H8.80729L8.5625 18.8802L7.77604 19.0261V20.9948H7.47916L7.28125 19.0782L6.49479 19.224V21.1927H6.29687L6.15104 19.3229L5.41146 19.4688V22.8646L11.2187 21.9323V16.5677L1.82291 18.8334V18.6823L11.2187 15.9792L12.6458 16.3229V17.849C13.3802 17.75 16.0885 17.2604 16.0885 17.4063C16.0885 17.5052 13.5312 18.3386 12.6458 18.5365V20.849C13.3802 20.7969 16.0885 20.4532 16.0885 20.5521C16.0885 20.7032 13.5312 21.3907 12.6458 21.5365V22.0313L16.0365 21.5834L16.4792 21.5365V14.2552L15.9375 14.3594V16.1771L13.1875 16.7188V15.0469L12.6458 15.1927V16.125C12.6458 16.125 12.5469 15.6823 12.349 15.5365C12.2031 15.4375 12.0521 15.3907 11.9062 15.3907H11.8073L11.7604 15.3386H11.7083L11.2656 14.8959L16.4792 13.4688V13.2761L11.3177 14.4532L11.4635 14.3073L16.4792 12.6823C16.4792 12.6823 18.0521 12.1927 19.5312 12.3386C21.0521 12.5365 22.1354 13.1771 22.1354 13.1771V13.5209L21.4948 13.6198L21.5469 14.3594L22.3802 14.2084C21.4479 14.6511 20.7083 15.3907 20.2656 16.3229L24.8437 14.9479C24.9896 14.4532 25.2344 13.9636 25.5312 13.6198L22.8229 14.2084L24.8906 13.5677V11.4063C24.7448 11.3542 24.5937 11.3542 24.4479 11.4063C24.0052 11.5521 23.6615 11.7969 23.6615 11.7969C23.6615 11.7969 23.5104 11.6979 23.5104 11.6042C23.5104 11.4532 23.8594 10.7657 25.1354 10.8646H25.2344V10.4688C24.6927 10.3229 24.0052 10.5209 23.6094 10.8177C23.7604 10.3229 24.4479 10.0782 25.1354 10.125C24.9375 9.78128 24.6927 9.68232 24.2031 9.78128C24.3021 9.68232 24.4479 9.63544 24.5469 9.58336V9.53649C24.4479 9.53649 24.401 9.48961 24.401 9.48961V8.89586C24.4479 8.84899 24.4948 8.80211 24.5469 8.80211V8.75003C24.5469 8.70315 24.6458 8.60419 24.7448 8.60419C24.8437 8.60419 24.8906 8.70315 24.8906 8.75003V8.80211C24.9896 8.84898 25.0365 8.89586 25.0365 8.94274V9.43753C25.0365 9.48961 24.9896 9.53649 24.8906 9.53649C24.9375 9.58336 25.0365 9.58336 25.0885 9.58336C25.4792 9.7344 25.776 10.0782 25.9219 10.3698C26.0208 10.4219 26.1198 10.5209 26.2187 10.5677C26.5156 10.8177 26.4635 10.8646 26.4635 10.8646C26.4635 10.8646 26.4635 11.4063 26.3646 11.5052C26.3177 11.6042 26.1198 11.6042 26.0208 11.6042V13.224L26.0729 13.1771C26.1719 13.1771 26.2187 13.125 26.2656 13.125L26.3646 13.0782L30.3021 11.849V9.19274C29.6615 9.09378 28.8229 9.33857 28.776 9.68232V11.0573L28.5312 9.63544L27.401 8.35419C28.1354 7.46878 30.1042 7.27607 31.4323 7.71878V7.22399C30.401 6.29169 28.2344 6.29169 27.2031 7.02607C27.349 6.29169 29.7135 5.45315 31.3333 5.99482C31.0417 5.45315 30.4479 5.1094 29.7135 5.1094C29.4167 5.1094 29.1198 5.16148 28.875 5.26044C29.3177 4.96357 29.8594 4.81253 30.401 4.81253C30.8385 4.81253 31.2865 4.96357 31.5781 5.16149C31.2344 4.71357 30.6927 4.4219 30.0052 4.4219C29.7135 4.4219 29.4635 4.46878 29.1667 4.56774C29.6615 4.27607 30.151 4.12503 30.6927 4.12503C30.8385 4.12503 30.9896 4.12503 31.1354 4.17711C30.8385 3.88023 30.4479 3.7344 30.0052 3.7344C29.1198 3.7344 28.3802 4.4219 28.3333 5.26044C28.2865 5.20836 28.2865 5.16149 28.2865 5.1094C28.2865 4.66669 28.4323 4.22398 28.6771 3.92711C28.1875 3.28648 27.401 2.99482 26.6615 3.28649C27.25 2.75003 28.2865 2.65107 29.2187 3.38544C29.2187 3.33857 29.2708 3.28649 29.3177 3.28649C28.6302 1.91149 26.5156 2.06253 25.974 3.58336C25.9219 3.38544 25.9219 3.23961 25.974 3.0469C25.5781 2.75003 25.0885 2.55211 24.4948 2.55211C23.8073 2.55211 23.1667 2.89586 22.724 3.38544C23.0729 2.55211 23.9062 1.96357 24.8906 1.96357C25.3802 1.96357 25.875 2.15628 26.2656 2.40628C26.3177 2.35419 26.3646 2.25523 26.4167 2.20836C24.9896 0.0937775 21.3021 1.17711 21.349 3.68232C21.3958 3.83336 21.3958 3.97919 21.3958 4.12503L21.349 3.97919C19.6302 2.94794 17.1198 4.22399 17.6615 6.78128C17.6615 6.78128 17.5625 6.68232 17.4167 6.43753V6.4844C16.2344 6.39065 15.6458 6.88024 15.0521 7.86461C15.151 6.58857 16.1354 5.99482 17.2656 5.94794C17.2187 5.7969 17.2187 5.65107 17.1667 5.45315C16.974 5.40628 16.776 5.40628 16.5781 5.40628C15.3021 5.40628 14.1719 6.29169 13.9219 7.52086C13.8229 7.81253 13.776 8.1094 13.776 8.40628C13.776 8.94274 13.9219 9.43753 14.1719 9.83336C13.625 9.23961 13.3333 8.50523 13.3333 7.66669C13.3333 5.89586 14.7604 4.4219 16.526 4.4219C16.776 4.4219 17.0208 4.46878 17.2187 4.52086C17.6615 2.94794 19.6771 1.81253 21.3021 2.50524C21.7917 -0.156222 25.8281 -1.08851 27.2031 1.66669C28.2865 1.27086 29.7135 1.71878 30.151 2.99482C30.25 2.99482 30.349 2.99482 30.4479 2.99482C31.6302 2.99482 32.5625 3.92711 32.5625 5.1094C32.5625 5.59899 32.4167 5.99482 32.1198 6.39065C32.4167 6.58857 32.6094 6.82815 32.7604 7.12503C32.7604 7.12503 32.5625 8.25523 32.4167 8.35419L31.3333 9.58336C31.3333 9.63544 31.3333 9.68232 31.3333 9.7344V12.4375H30.8385L26.4635 13.4219C25.974 13.8125 25.5781 14.2552 25.2812 14.7969L29.9583 13.375C29.8594 13.7657 29.7135 14.1563 29.6615 14.6042L24.9375 15.6354C24.8437 15.8802 24.7917 16.1771 24.7448 16.474L29.6146 15.2396C29.6146 15.2917 29.6146 15.3907 29.6146 15.4375C29.6146 15.7813 29.6146 16.0782 29.6615 16.375L19.875 17.9948V18.0417L17.3177 18.4375L17.3646 18.3386L19.8281 17.6979C19.8281 17.4063 19.8281 17.0625 19.875 16.7188L18.25 17.0625L18.3021 16.9636L19.9219 16.4219C20.0677 15.8334 20.3646 15.2396 20.7604 14.849C19.1875 14.9479 17.8594 15.4375 17.0729 16.6667C17.0729 16.6667 16.8229 17.5052 16.9219 18.5365C16.9219 19.0782 16.9219 19.375 16.9219 19.5677L27.6458 17.6511V18.9792L30.1042 18.6354C29.8073 17.8959 29.8073 17.1615 30.0052 16.224C30.25 17.6042 30.6458 18.4896 31.4792 19.1771C31.776 19.2761 32.0208 19.375 32.1719 19.4219C31.2344 18.8334 30.5937 17.4063 30.5937 15.7344C30.5937 14.1563 31.1875 12.7813 32.0729 12.1459H31.6771V10.5209C31.6771 10.5209 31.6302 9.97919 32.0208 9.63544C32.4167 9.33857 33.349 9.33857 33.349 9.33857C33.8437 9.43753 34.2344 9.63544 34.2344 10.224V12.0938C35.1198 12.6823 35.7604 14.1094 35.7604 15.7344C35.7604 17.1094 35.3177 18.3386 34.6302 19.0782C34.724 19.0261 34.8281 18.9792 34.9271 18.9323C35.1198 18.7813 35.3177 18.6354 35.4635 18.4896L36.349 20.5052H37.6771V21.4896L39.1562 24.2917H40.0885V24.9792H36.0052C35.9583 25.3229 35.8073 25.6198 35.5625 25.8177H40.2865C42.7448 25.8177 41.9583 26.2604 40.1875 26.3594L28.2344 26.849L1.625 26.0625C0.203122 26.0104 0.593747 25.8177 1.67708 25.8177ZM33.4479 9.78128C33.7448 9.78128 33.9375 10.224 33.9375 10.7657C33.9375 11.3073 33.7448 11.75 33.4479 11.75C33.2031 11.75 33.0052 11.3073 33.0052 10.7657C33.0052 10.224 33.2031 9.78128 33.4479 9.78128Z" fill="#004AAD"/>
</g>
</svg>
